<?xml version="1.0" standalone="no"?>
<!DOCTYPE svg PUBLIC "-//W3C//DTD SVG 20010904//EN"
 "http://www.w3.org/TR/2001/REC-SVG-20010904/DTD/svg10.dtd">
<svg version="1.0" xmlns="http://www.w3.org/2000/svg"
 width="1026.000000pt" height="1026.000000pt" viewBox="0 0 1026.000000 1026.000000"
 preserveAspectRatio="xMidYMid meet">
<metadata>
Created by potrace 1.14, written by Peter Selinger 2001-2017
</metadata>
<g transform="translate(0.000000,1026.000000) scale(0.100000,-0.100000)"
fill="#000000" stroke="none">
<path d="M207 10246 c-92 -33 -161 -104 -191 -194 -15 -43 -16 -529 -14 -4942
l3 -4895 30 -54 c37 -66 92 -115 162 -141 54 -20 66 -20 4951 -18 l4897 3 54
30 c66 37 115 92 141 162 20 54 20 72 20 4933 0 4861 0 4879 -20 4933 -26 70
-75 125 -141 162 l-54 30 -4900 2 c-4104 2 -4906 0 -4938 -11z"/>
</g>
</svg>
